<?xml version="1.0" encoding="UTF-8" standalone="no"?>
<!-- Created with Inkscape (http://www.inkscape.org/) -->

<svg
   xmlns:dc="http://purl.org/dc/elements/1.1/"
   xmlns:cc="http://creativecommons.org/ns#"
   xmlns:rdf="http://www.w3.org/1999/02/22-rdf-syntax-ns#"
   xmlns:svg="http://www.w3.org/2000/svg"
   xmlns="http://www.w3.org/2000/svg"
   xmlns:sodipodi="http://sodipodi.sourceforge.net/DTD/sodipodi-0.dtd"
   xmlns:inkscape="http://www.inkscape.org/namespaces/inkscape"
   width="744.09448819"
   height="1052.3622047"
   id="svg2"
   version="1.1"
   inkscape:version="0.48.1 r9760"
   sodipodi:docname="rtcwcoop.svg">
  <defs
     id="defs4" />
  <sodipodi:namedview
     id="base"
     pagecolor="#ffffff"
     bordercolor="#666666"
     borderopacity="1.0"
     inkscape:pageopacity="0.0"
     inkscape:pageshadow="2"
     inkscape:zoom="3.6262594"
     inkscape:cx="266.64173"
     inkscape:cy="603.4361"
     inkscape:document-units="px"
     inkscape:current-layer="layer1"
     showgrid="false"
     showguides="true"
     inkscape:guide-bbox="true"
     inkscape:window-width="1397"
     inkscape:window-height="609"
     inkscape:window-x="35"
     inkscape:window-y="239"
     inkscape:window-maximized="0">
    <sodipodi:guide
       orientation="1,0"
       position="321.6276,595.02403"
       id="guide3773" />
    <sodipodi:guide
       orientation="0,1"
       position="317.33213,590.92476"
       id="guide3775" />
    <sodipodi:guide
       orientation="1,0"
       position="341.02322,595.14439"
       id="guide3781" />
    <sodipodi:guide
       orientation="1,0"
       position="360.71484,596.44531"
       id="guide3785" />
    <sodipodi:guide
       orientation="1,0"
       position="323.97656,619.07422"
       id="guide3787" />
    <sodipodi:guide
       orientation="0,1"
       position="323.87891,619.17188"
       id="guide3789" />
    <sodipodi:guide
       orientation="1,0"
       position="343.65456,618.57821"
       id="guide3812" />
    <sodipodi:guide
       orientation="0,1"
       position="213.02625,622.7772"
       id="guide3816" />
    <sodipodi:guide
       orientation="1,0"
       position="213.12925,623.00112"
       id="guide3818" />
    <sodipodi:guide
       orientation="1,0"
       position="383.86984,587.64033"
       id="guide3827" />
    <sodipodi:guide
       orientation="0,1"
       position="384.32558,587.27574"
       id="guide3829" />
  </sodipodi:namedview>
  <metadata
     id="metadata7">
    <rdf:RDF>
      <cc:Work
         rdf:about="">
        <dc:format>image/svg+xml</dc:format>
        <dc:type
           rdf:resource="http://purl.org/dc/dcmitype/StillImage" />
        <dc:title></dc:title>
      </cc:Work>
    </rdf:RDF>
  </metadata>
  <g
     inkscape:label="Layer 1"
     inkscape:groupmode="layer"
     id="layer1">
    <rect
       style="fill:#ffffff;fill-opacity:1;stroke:none"
       id="rect3846"
       width="195.24251"
       height="62.047409"
       x="202.6882"
       y="419.75439"
       inkscape:export-filename="/bigfiles/c/bzzwolfsp/media/assets - sources/rtcwcoop.png"
       inkscape:export-xdpi="300.43655"
       inkscape:export-ydpi="300.43655" />
    <path
       style="fill:#850303;fill-opacity:1;stroke:none;stroke-opacity:1"
       d="M 217.03125 429.59375 L 213.125 433.5 L 213.125 465.09375 L 383.875 465.09375 L 383.875 429.59375 L 217.03125 429.59375 z "
       id="rect3771"
       inkscape:export-filename="/bigfiles/c/bzzwolfsp/media/assets - sources/rtcwcoop.png"
       inkscape:export-xdpi="300.43655"
       inkscape:export-ydpi="300.43655" />
    <path
       style="font-size:40px;font-style:normal;font-variant:normal;font-weight:normal;font-stretch:normal;line-height:125%;letter-spacing:0px;word-spacing:0px;fill:#ffffff;fill-opacity:1;stroke:none;font-family:Aldo the Apache;-inkscape-font-specification:Aldo the Apache"
       d="M 222.40625 433.1875 L 218.125 437.1875 L 218.125 461.4375 L 224.03125 461.4375 L 224.03125 451.21875 L 225.59375 451.21875 L 229.125 461.4375 L 235.0625 461.4375 L 231.3125 451.125 L 234.5 451.125 L 234.5 433.1875 L 222.40625 433.1875 z M 237.25 433.1875 L 237.25 438.5625 L 242.78125 438.5625 L 242.78125 461.4375 L 248.75 461.4375 L 248.75 438.5625 L 254.0625 438.5625 L 254.0625 433.1875 L 237.25 433.1875 z M 260.6875 433.1875 L 256.46875 437.0625 L 256.46875 461.4375 L 269.21875 461.4375 L 273.125 457.53125 L 273.125 452.65625 L 267.1875 452.65625 L 267.1875 456.09375 L 262.40625 456.09375 L 262.40625 438.5625 L 267.1875 438.5625 L 267.1875 443.84375 L 273.125 443.84375 L 273.125 433.1875 L 260.6875 433.1875 z M 275.625 433.1875 L 280.5 461.4375 L 285.90625 461.4375 L 289.03125 443.9375 L 292.15625 461.4375 L 297.53125 461.4375 L 302.40625 433.1875 L 296.625 433.1875 L 294.09375 450.03125 L 291.0625 433.1875 L 286.96875 433.1875 L 283.9375 450.03125 L 281.40625 433.1875 L 275.625 433.1875 z M 309.21875 433.1875 L 305 437.0625 L 305 461.4375 L 317.71875 461.4375 L 321.625 457.53125 L 321.625 452.65625 L 315.6875 452.65625 L 315.6875 456.09375 L 310.9375 456.09375 L 310.9375 438.5625 L 315.6875 438.5625 L 315.6875 443.84375 L 321.625 443.84375 L 321.625 433.1875 L 309.21875 433.1875 z M 327.90625 433.1875 L 323.96875 437.09375 L 323.96875 461.4375 L 337.09375 461.4375 L 341.03125 457.53125 L 341.03125 433.1875 L 327.90625 433.1875 z M 347.5625 433.1875 L 343.65625 437.09375 L 343.65625 461.4375 L 356.8125 461.4375 L 360.71875 457.53125 L 360.71875 433.1875 L 347.5625 433.1875 z M 367.625 433.1875 L 363.34375 437.1875 L 363.34375 461.4375 L 369.28125 461.4375 L 369.28125 454.25 L 379.75 454.25 L 379.75 433.1875 L 367.625 433.1875 z M 224.03125 438.5625 L 228.59375 438.5625 L 228.59375 445.9375 L 224.03125 445.9375 L 224.03125 438.5625 z M 329.90625 438.5625 L 335.125 438.5625 L 335.125 456.09375 L 329.90625 456.09375 L 329.90625 438.5625 z M 349.59375 438.5625 L 354.8125 438.5625 L 354.8125 456.09375 L 349.59375 456.09375 L 349.59375 438.5625 z M 369.28125 438.5625 L 373.8125 438.5625 L 373.8125 448.84375 L 369.28125 448.84375 L 369.28125 438.5625 z "
       id="text2985"
       inkscape:export-filename="/bigfiles/c/bzzwolfsp/media/assets - sources/rtcwcoop.png"
       inkscape:export-xdpi="300.43655"
       inkscape:export-ydpi="300.43655" />
    <path
       sodipodi:nodetypes="cccc"
       inkscape:connector-curvature="0"
       id="path3835"
       d="m 360.71481,501.44523 3e-5,-3.90845 -3.91546,3.90845 z"
       style="fill:#000000;fill-opacity:1;stroke:none" />
    <rect
       style="fill:#000000;fill-opacity:1;stroke:none"
       id="rect3838"
       width="170.74059"
       height="8.2327328"
       x="213.12926"
       y="466.90863"
       inkscape:export-filename="/bigfiles/c/bzzwolfsp/media/assets - sources/rtcwcoop.png"
       inkscape:export-xdpi="300.43655"
       inkscape:export-ydpi="300.43655" />
    <text
       xml:space="preserve"
       style="font-size:9px;font-style:normal;font-variant:normal;font-weight:normal;font-stretch:normal;line-height:125%;letter-spacing:0px;word-spacing:0px;fill:#ffffff;fill-opacity:1;stroke:none;font-family:Aldo the Apache;-inkscape-font-specification:Aldo the Apache"
       x="213.94118"
       y="474.22647"
       id="text3840"
       sodipodi:linespacing="125%"
       inkscape:export-filename="/bigfiles/c/bzzwolfsp/media/assets - sources/rtcwcoop.png"
       inkscape:export-xdpi="300.43655"
       inkscape:export-ydpi="300.43655"><tspan
         sodipodi:role="line"
         id="tspan3842"
         x="213.94118"
         y="474.22647">a return to castle wolfenstein <tspan
   style="letter-spacing:0.56px"
   id="tspan3844">modification</tspan></tspan></text>
  </g>
</svg>
