<?xml version="1.0" encoding="UTF-8" standalone="no"?>
<!-- Created with Inkscape (http://www.inkscape.org/) -->

<svg
   xmlns:dc="http://purl.org/dc/elements/1.1/"
   xmlns:cc="http://creativecommons.org/ns#"
   xmlns:rdf="http://www.w3.org/1999/02/22-rdf-syntax-ns#"
   xmlns:svg="http://www.w3.org/2000/svg"
   xmlns="http://www.w3.org/2000/svg"
   xmlns:sodipodi="http://sodipodi.sourceforge.net/DTD/sodipodi-0.dtd"
   xmlns:inkscape="http://www.inkscape.org/namespaces/inkscape"
   width="744.09448819"
   height="1052.3622047"
   id="svg2"
   version="1.1"
   inkscape:version="0.48.3.1 r9886"
   sodipodi:docname="rtcwcoop.svg">
  <defs
     id="defs4" />
  <sodipodi:namedview
     id="base"
     pagecolor="#ffffff"
     bordercolor="#666666"
     borderopacity="1.0"
     inkscape:pageopacity="0.0"
     inkscape:pageshadow="2"
     inkscape:zoom="3.6416185"
     inkscape:cx="253"
     inkscape:cy="650.5"
     inkscape:document-units="px"
     inkscape:current-layer="layer1"
     showgrid="false"
     showguides="false"
     inkscape:guide-bbox="true"
     inkscape:window-width="1420"
     inkscape:window-height="840"
     inkscape:window-x="14"
     inkscape:window-y="0"
     inkscape:window-maximized="0">
    <sodipodi:guide
       orientation="1,0"
       position="321.6276,595.02403"
       id="guide3773" />
    <sodipodi:guide
       orientation="0,1"
       position="317.33213,590.92476"
       id="guide3775" />
    <sodipodi:guide
       orientation="1,0"
       position="341.02322,595.14439"
       id="guide3781" />
    <sodipodi:guide
       orientation="1,0"
       position="360.71484,596.44531"
       id="guide3785" />
    <sodipodi:guide
       orientation="1,0"
       position="323.97656,619.07422"
       id="guide3787" />
    <sodipodi:guide
       orientation="0,1"
       position="323.87891,619.17188"
       id="guide3789" />
    <sodipodi:guide
       orientation="1,0"
       position="343.65456,618.57821"
       id="guide3812" />
    <sodipodi:guide
       orientation="0,1"
       position="213.02625,622.7772"
       id="guide3816" />
    <sodipodi:guide
       orientation="1,0"
       position="213.12925,623.00112"
       id="guide3818" />
    <sodipodi:guide
       orientation="1,0"
       position="383.86984,587.64033"
       id="guide3827" />
    <sodipodi:guide
       orientation="0,1"
       position="384.32558,587.27574"
       id="guide3829" />
    <sodipodi:guide
       orientation="0,1"
       position="214.69655,584.51174"
       id="guide3181" />
    <sodipodi:guide
       orientation="0,1"
       position="262.76562,578.13672"
       id="guide3183" />
    <sodipodi:guide
       orientation="1,0"
       position="323.79297,582.75391"
       id="guide3185" />
    <sodipodi:guide
       orientation="1,0"
       position="325.1277,582.19637"
       id="guide3187" />
    <sodipodi:guide
       orientation="0,1"
       position="124.17598,705.90078"
       id="guide3419" />
    <sodipodi:guide
       orientation="0,1"
       position="171.00771,677.67106"
       id="guide3421" />
    <sodipodi:guide
       orientation="1,0"
       position="129.46032,706.79365"
       id="guide3423" />
    <sodipodi:guide
       orientation="1,0"
       position="291.09938,706.12739"
       id="guide3425" />
  </sodipodi:namedview>
  <metadata
     id="metadata7">
    <rdf:RDF>
      <cc:Work
         rdf:about="">
        <dc:format>image/svg+xml</dc:format>
        <dc:type
           rdf:resource="http://purl.org/dc/dcmitype/StillImage" />
        <dc:title />
      </cc:Work>
    </rdf:RDF>
  </metadata>
  <g
     inkscape:label="Layer 1"
     inkscape:groupmode="layer"
     id="layer1">
    <rect
       style="fill:#ffffff;fill-opacity:1;stroke:none"
       id="rect3846"
       width="195.24251"
       height="62.047409"
       x="343.65457"
       y="472.70151"
       inkscape:export-filename="/bigfiles/c/bzzwolfsp/media/assets - sources/rtcwcoop.png"
       inkscape:export-xdpi="300.43655"
       inkscape:export-ydpi="300.43655" />
    <path
       sodipodi:nodetypes="cccc"
       inkscape:connector-curvature="0"
       id="path3835"
       d="m 360.71481,501.44523 3e-5,-3.90845 -3.91546,3.90845 z"
       style="fill:#000000;fill-opacity:1;stroke:none" />
    <g
       id="g3251">
      <path
         inkscape:connector-curvature="0"
         inkscape:export-ydpi="300.43655"
         inkscape:export-xdpi="300.43655"
         inkscape:export-filename="/bigfiles/c/bzzwolfsp/media/assets - sources/rtcwcoop.png"
         id="rect3771"
         d="M 217.03125,429.59375 213.125,433.5 l 0,31.59375 170.75,0 0,-35.5 -166.84375,0 z"
         style="fill:#850303;fill-opacity:1;stroke:none" />
      <path
         inkscape:connector-curvature="0"
         inkscape:export-ydpi="300.43655"
         inkscape:export-xdpi="300.43655"
         inkscape:export-filename="/bigfiles/c/bzzwolfsp/media/assets - sources/rtcwcoop.png"
         id="text2985"
         d="m 222.40625,433.1875 -4.28125,4 0,24.25 5.90625,0 0,-10.21875 1.5625,0 3.53125,10.21875 5.9375,0 -3.75,-10.3125 3.1875,0 0,-17.9375 -12.09375,0 z m 14.84375,0 0,5.375 5.53125,0 0,22.875 5.96875,0 0,-22.875 5.3125,0 0,-5.375 -16.8125,0 z m 23.4375,0 -4.21875,3.875 0,24.375 12.75,0 3.90625,-3.90625 0,-4.875 -5.9375,0 0,3.4375 -4.78125,0 0,-17.53125 4.78125,0 0,5.28125 5.9375,0 0,-10.65625 -12.4375,0 z m 14.9375,0 4.875,28.25 5.40625,0 3.125,-17.5 3.125,17.5 5.375,0 4.875,-28.25 -5.78125,0 -2.53125,16.84375 -3.03125,-16.84375 -4.09375,0 -3.03125,16.84375 -2.53125,-16.84375 -5.78125,0 z m 33.59375,0 -4.21875,3.875 0,24.375 12.71875,0 3.90625,-3.90625 0,-4.875 -5.9375,0 0,3.4375 -4.75,0 0,-17.53125 4.75,0 0,5.28125 5.9375,0 0,-10.65625 -12.40625,0 z m 18.6875,0 -3.9375,3.90625 0,24.34375 13.125,0 3.9375,-3.90625 0,-24.34375 -13.125,0 z m 19.65625,0 -3.90625,3.90625 0,24.34375 13.15625,0 3.90625,-3.90625 0,-24.34375 -13.15625,0 z m 20.0625,0 -4.28125,4 0,24.25 5.9375,0 0,-7.1875 10.46875,0 0,-21.0625 -12.125,0 z m -143.59375,5.375 4.5625,0 0,7.375 -4.5625,0 0,-7.375 z m 105.875,0 5.21875,0 0,17.53125 -5.21875,0 0,-17.53125 z m 19.6875,0 5.21875,0 0,17.53125 -5.21875,0 0,-17.53125 z m 19.6875,0 4.53125,0 0,10.28125 -4.53125,0 0,-10.28125 z"
         style="font-size:40px;font-style:normal;font-variant:normal;font-weight:normal;font-stretch:normal;line-height:125%;letter-spacing:0px;word-spacing:0px;fill:#ffffff;fill-opacity:1;stroke:none;font-family:Aldo the Apache;-inkscape-font-specification:Aldo the Apache" />
      <rect
         inkscape:export-ydpi="300.43655"
         inkscape:export-xdpi="300.43655"
         inkscape:export-filename="/bigfiles/c/bzzwolfsp/media/assets - sources/rtcwcoop.png"
         y="466.90863"
         x="213.12926"
         height="8.2327328"
         width="170.74059"
         id="rect3838"
         style="fill:#000000;fill-opacity:1;stroke:none" />
      <path
         sodipodi:nodetypes="cccccccccccccc"
         d="m 215.49684,474.22647 -1.33584,0 0,-6.35429 3.80117,0 0,6.35429 -1.33154,0 0,-2.0874 -1.13379,0 0,2.0874 m 1.13379,-3.2959 0,-1.8501 -1.13379,0 0,1.8501 1.13379,0"
         id="path3010"
         inkscape:connector-curvature="0"
         style="font-size:9px;font-style:normal;font-variant:normal;font-weight:normal;font-stretch:normal;line-height:125%;letter-spacing:0px;word-spacing:0px;fill:#ffffff;fill-opacity:1;stroke:none;font-family:Aldo the Apache;-inkscape-font-specification:Aldo the Apache" />
      <path
         sodipodi:nodetypes="cccccccccccccccc"
         d="m 222.99831,474.22647 -0.79102,-2.29834 -0.35156,0 0,2.29834 -1.33255,0 0.002,-6.35429 3.68638,0 0,4.03837 -0.72071,0 0.84375,2.31592 -1.33593,0 m -0.11866,-3.48926 0,-1.65674 -1.02392,0 0,1.65674 1.02392,0"
         id="path3012"
         inkscape:connector-curvature="0"
         style="font-size:9px;font-style:normal;font-variant:normal;font-weight:normal;font-stretch:normal;line-height:125%;letter-spacing:0px;word-spacing:0px;fill:#ffffff;fill-opacity:1;stroke:none;font-family:Aldo the Apache;-inkscape-font-specification:Aldo the Apache" />
      <path
         d="m 224.83083,467.87198 3.08496,0 0,1.20849 -1.7666,0 0,1.22608 1.67871,0 0,1.18652 -1.66114,0 0,1.5293 1.79297,0 0,1.2041 -3.1289,0 0,-6.35449"
         id="path3014"
         inkscape:connector-curvature="0"
         style="font-size:9px;font-style:normal;font-variant:normal;font-weight:normal;font-stretch:normal;line-height:125%;letter-spacing:0px;word-spacing:0px;fill:#ffffff;fill-opacity:1;stroke:none;font-family:Aldo the Apache;-inkscape-font-specification:Aldo the Apache" />
      <path
         d="m 232.23561,469.08047 -1.19971,0 0,5.146 -1.34033,0 0,-5.146 -1.24365,0 0,-1.20849 3.78369,0 0,1.20849"
         id="path3016"
         inkscape:connector-curvature="0"
         style="font-size:9px;font-style:normal;font-variant:normal;font-weight:normal;font-stretch:normal;line-height:125%;letter-spacing:0px;word-spacing:0px;fill:#ffffff;fill-opacity:1;stroke:none;font-family:Aldo the Apache;-inkscape-font-specification:Aldo the Apache" />
      <path
         d="m 236.53346,474.22647 -3.75732,0 0,-6.35449 1.33154,0 0,5.15039 1.08985,0 0,-5.15039 1.33593,0 0,6.35449"
         id="path3018"
         inkscape:connector-curvature="0"
         style="font-size:9px;font-style:normal;font-variant:normal;font-weight:normal;font-stretch:normal;line-height:125%;letter-spacing:0px;word-spacing:0px;fill:#ffffff;fill-opacity:1;stroke:none;font-family:Aldo the Apache;-inkscape-font-specification:Aldo the Apache" />
      <path
         sodipodi:nodetypes="cccccccccccccccc"
         d="m 239.60963,474.22647 -0.79101,-2.29834 -0.35156,0 0,2.29834 -1.33106,0 0,-6.37629 3.68652,0.0218 0,4.03857 -0.72071,0 0.84375,2.31592 -1.33594,0 m -0.11865,-3.48926 0,-1.65674 -1.02392,0 0,1.65674 1.02392,0"
         id="path3020"
         inkscape:connector-curvature="0"
         style="font-size:9px;font-style:normal;font-variant:normal;font-weight:normal;font-stretch:normal;line-height:125%;letter-spacing:0px;word-spacing:0px;fill:#ffffff;fill-opacity:1;stroke:none;font-family:Aldo the Apache;-inkscape-font-specification:Aldo the Apache" />
      <path
         d="m 244.05251,471.51944 0,-3.64746 1.25683,0 0,6.35449 -1.31836,0 -1.30078,-3.64746 0,3.64746 -1.24805,0 0,-6.35449 1.31836,0 1.292,3.64746"
         id="path3022"
         inkscape:connector-curvature="0"
         style="font-size:9px;font-style:normal;font-variant:normal;font-weight:normal;font-stretch:normal;line-height:125%;letter-spacing:0px;word-spacing:0px;fill:#ffffff;fill-opacity:1;stroke:none;font-family:Aldo the Apache;-inkscape-font-specification:Aldo the Apache" />
      <path
         d="m 251.78249,469.08047 -1.19971,0 0,5.146 -1.34033,0 0,-5.146 -1.24366,0 0,-1.20849 3.7837,0 0,1.20849"
         id="path3024"
         inkscape:connector-curvature="0"
         style="font-size:9px;font-style:normal;font-variant:normal;font-weight:normal;font-stretch:normal;line-height:125%;letter-spacing:0px;word-spacing:0px;fill:#ffffff;fill-opacity:1;stroke:none;font-family:Aldo the Apache;-inkscape-font-specification:Aldo the Apache" />
      <path
         d="m 252.32301,467.87198 3.83643,0 0,6.35449 -3.83643,0 0,-6.35449 m 1.33594,5.15039 1.16895,0 0,-3.9419 -1.16895,0 0,3.9419"
         id="path3026"
         inkscape:connector-curvature="0"
         style="font-size:9px;font-style:normal;font-variant:normal;font-weight:normal;font-stretch:normal;line-height:125%;letter-spacing:0px;word-spacing:0px;fill:#ffffff;fill-opacity:1;stroke:none;font-family:Aldo the Apache;-inkscape-font-specification:Aldo the Apache" />
      <path
         sodipodi:nodetypes="ccccccccccccc"
         d="m 261.21754,473.02237 0,-0.77344 1.33594,0 -4.8e-4,1.97653 -3.74371,10e-4 -3.4e-4,-6.35429 3.74405,-2e-4 2e-5,2.39941 -1.33594,0 0,-1.19092 -1.07226,0 0,3.9419 1.07226,0"
         id="path3028"
         inkscape:connector-curvature="0"
         style="font-size:9px;font-style:normal;font-variant:normal;font-weight:normal;font-stretch:normal;line-height:125%;letter-spacing:0px;word-spacing:0px;fill:#ffffff;fill-opacity:1;stroke:none;font-family:Aldo the Apache;-inkscape-font-specification:Aldo the Apache" />
      <path
         sodipodi:nodetypes="cccccccccccccc"
         d="m 264.41676,474.22647 -1.33576,0 0,-6.37629 3.8011,0.0218 0,6.35449 -1.33155,0 0,-2.0874 -1.13379,0 0,2.0874 m 1.13379,-3.2959 0,-1.8501 -1.13379,0 0,1.8501 1.13379,0"
         id="path3030"
         inkscape:connector-curvature="0"
         style="font-size:9px;font-style:normal;font-variant:normal;font-weight:normal;font-stretch:normal;line-height:125%;letter-spacing:0px;word-spacing:0px;fill:#ffffff;fill-opacity:1;stroke:none;font-family:Aldo the Apache;-inkscape-font-specification:Aldo the Apache" />
      <path
         d="m 270.88112,474.22647 -3.49365,0 0,-1.97754 1.33154,0 0,0.77344 0.82617,0 0,-1.01074 -2.11377,-1.59522 0,-2.54443 3.41016,0 0,1.88965 -1.2085,0 0,-0.67676 -0.87012,0 0,0.83057 2.11817,1.59082 0,2.72021"
         id="path3032"
         inkscape:connector-curvature="0"
         style="font-size:9px;font-style:normal;font-variant:normal;font-weight:normal;font-stretch:normal;line-height:125%;letter-spacing:0px;word-spacing:0px;fill:#ffffff;fill-opacity:1;stroke:none;font-family:Aldo the Apache;-inkscape-font-specification:Aldo the Apache" />
      <path
         d="m 275.24928,469.08047 -1.1997,0 0,5.146 -1.34034,0 0,-5.146 -1.24365,0 0,-1.20849 3.78369,0 0,1.20849"
         id="path3034"
         inkscape:connector-curvature="0"
         style="font-size:9px;font-style:normal;font-variant:normal;font-weight:normal;font-stretch:normal;line-height:125%;letter-spacing:0px;word-spacing:0px;fill:#ffffff;fill-opacity:1;stroke:none;font-family:Aldo the Apache;-inkscape-font-specification:Aldo the Apache" />
      <path
         d="m 275.78981,474.22647 0,-6.35449 1.33154,0 0,5.15039 1.86328,0 0,1.2041 -3.19482,0"
         id="path3036"
         inkscape:connector-curvature="0"
         style="font-size:9px;font-style:normal;font-variant:normal;font-weight:normal;font-stretch:normal;line-height:125%;letter-spacing:0px;word-spacing:0px;fill:#ffffff;fill-opacity:1;stroke:none;font-family:Aldo the Apache;-inkscape-font-specification:Aldo the Apache" />
      <path
         d="m 279.55153,467.87198 3.08496,0 0,1.20849 -1.7666,0 0,1.22608 1.67871,0 0,1.18652 -1.66113,0 0,1.5293 1.79297,0 0,1.2041 -3.12891,0 0,-6.35449"
         id="path3038"
         inkscape:connector-curvature="0"
         style="font-size:9px;font-style:normal;font-variant:normal;font-weight:normal;font-stretch:normal;line-height:125%;letter-spacing:0px;word-spacing:0px;fill:#ffffff;fill-opacity:1;stroke:none;font-family:Aldo the Apache;-inkscape-font-specification:Aldo the Apache" />
      <path
         d="m 287.57594,474.22647 -1.21289,0 -1.09424,-6.35449 1.29639,0 0.57129,3.78808 0.68115,-3.78808 0.92285,0 0.68116,3.78808 0.57129,-3.78808 1.29638,0 -1.09424,6.35449 -1.21289,0 -0.70312,-3.9375 -0.70313,3.9375"
         id="path3040"
         inkscape:connector-curvature="0"
         style="font-size:9px;font-style:normal;font-variant:normal;font-weight:normal;font-stretch:normal;line-height:125%;letter-spacing:0px;word-spacing:0px;fill:#ffffff;fill-opacity:1;stroke:none;font-family:Aldo the Apache;-inkscape-font-specification:Aldo the Apache" />
      <path
         d="m 291.87379,467.87198 3.83643,0 0,6.35449 -3.83643,0 0,-6.35449 m 1.33594,5.15039 1.16895,0 0,-3.9419 -1.16895,0 0,3.9419"
         id="path3042"
         inkscape:connector-curvature="0"
         style="font-size:9px;font-style:normal;font-variant:normal;font-weight:normal;font-stretch:normal;line-height:125%;letter-spacing:0px;word-spacing:0px;fill:#ffffff;fill-opacity:1;stroke:none;font-family:Aldo the Apache;-inkscape-font-specification:Aldo the Apache" />
      <path
         d="m 296.30348,474.22647 0,-6.35449 1.33155,0 0,5.15039 1.86328,0 0,1.2041 -3.19483,0"
         id="path3044"
         inkscape:connector-curvature="0"
         style="font-size:9px;font-style:normal;font-variant:normal;font-weight:normal;font-stretch:normal;line-height:125%;letter-spacing:0px;word-spacing:0px;fill:#ffffff;fill-opacity:1;stroke:none;font-family:Aldo the Apache;-inkscape-font-specification:Aldo the Apache" />
      <path
         sodipodi:nodetypes="ccccccccccc"
         d="m 301.39674,471.49307 0,2.7334 -1.33174,0 0,-6.37629 3.03682,0.0218 0,1.20849 -1.70508,0 0,1.22608 1.57325,0 0,1.18652 -1.57325,0"
         id="path3046"
         inkscape:connector-curvature="0"
         style="font-size:9px;font-style:normal;font-variant:normal;font-weight:normal;font-stretch:normal;line-height:125%;letter-spacing:0px;word-spacing:0px;fill:#ffffff;fill-opacity:1;stroke:none;font-family:Aldo the Apache;-inkscape-font-specification:Aldo the Apache" />
      <path
         d="m 303.65114,467.87198 3.08496,0 0,1.20849 -1.7666,0 0,1.22608 1.67871,0 0,1.18652 -1.66113,0 0,1.5293 1.79296,0 0,1.2041 -3.1289,0 0,-6.35449"
         id="path3048"
         inkscape:connector-curvature="0"
         style="font-size:9px;font-style:normal;font-variant:normal;font-weight:normal;font-stretch:normal;line-height:125%;letter-spacing:0px;word-spacing:0px;fill:#ffffff;fill-opacity:1;stroke:none;font-family:Aldo the Apache;-inkscape-font-specification:Aldo the Apache" />
      <path
         d="m 309.88258,471.51944 0,-3.64746 1.25684,0 0,6.35449 -1.31836,0 -1.30078,-3.64746 0,3.64746 -1.24805,0 0,-6.35449 1.31836,0 1.29199,3.64746"
         id="path3050"
         inkscape:connector-curvature="0"
         style="font-size:9px;font-style:normal;font-variant:normal;font-weight:normal;font-stretch:normal;line-height:125%;letter-spacing:0px;word-spacing:0px;fill:#ffffff;fill-opacity:1;stroke:none;font-family:Aldo the Apache;-inkscape-font-specification:Aldo the Apache" />
      <path
         d="m 315.26588,474.22647 -3.49365,0 0,-1.97754 1.33155,0 0,0.77344 0.82617,0 0,-1.01074 -2.11377,-1.59522 0,-2.54443 3.41015,0 0,1.88965 -1.20849,0 0,-0.67676 -0.87012,0 0,0.83057 2.11816,1.59082 0,2.72021"
         id="path3052"
         inkscape:connector-curvature="0"
         style="font-size:9px;font-style:normal;font-variant:normal;font-weight:normal;font-stretch:normal;line-height:125%;letter-spacing:0px;word-spacing:0px;fill:#ffffff;fill-opacity:1;stroke:none;font-family:Aldo the Apache;-inkscape-font-specification:Aldo the Apache" />
      <path
         d="m 319.63405,469.08047 -1.19971,0 0,5.146 -1.34033,0 0,-5.146 -1.24365,0 0,-1.20849 3.78369,0 0,1.20849"
         id="path3054"
         inkscape:connector-curvature="0"
         style="font-size:9px;font-style:normal;font-variant:normal;font-weight:normal;font-stretch:normal;line-height:125%;letter-spacing:0px;word-spacing:0px;fill:#ffffff;fill-opacity:1;stroke:none;font-family:Aldo the Apache;-inkscape-font-specification:Aldo the Apache" />
      <path
         d="m 320.17458,467.87198 3.08496,0 0,1.20849 -1.7666,0 0,1.22608 1.67871,0 0,1.18652 -1.66114,0 0,1.5293 1.79297,0 0,1.2041 -3.1289,0 0,-6.35449"
         id="path3056"
         inkscape:connector-curvature="0"
         style="font-size:9px;font-style:normal;font-variant:normal;font-weight:normal;font-stretch:normal;line-height:125%;letter-spacing:0px;word-spacing:0px;fill:#ffffff;fill-opacity:1;stroke:none;font-family:Aldo the Apache;-inkscape-font-specification:Aldo the Apache" />
      <path
         sodipodi:nodetypes="ccccc"
         d="m 325.12721,467.8504 0,6.37607 -1.33154,0 0,-6.37607 1.33133,4e-5"
         id="path3058"
         inkscape:connector-curvature="0"
         style="font-size:9px;font-style:normal;font-variant:normal;font-weight:normal;font-stretch:normal;line-height:125%;letter-spacing:0px;word-spacing:0px;fill:#ffffff;fill-opacity:1;stroke:none;font-family:Aldo the Apache;-inkscape-font-specification:Aldo the Apache" />
      <path
         d="m 328.23415,471.51944 0,-3.64746 1.25683,0 0,6.35449 -1.31836,0 -1.30078,-3.64746 0,3.64746 -1.24805,0 0,-6.35449 1.31836,0 1.292,3.64746"
         id="path3060"
         inkscape:connector-curvature="0"
         style="font-size:9px;font-style:normal;font-variant:normal;font-weight:normal;font-stretch:normal;line-height:125%;letter-spacing:0px;word-spacing:0px;fill:#ffffff;fill-opacity:1;stroke:none;font-family:Aldo the Apache;-inkscape-font-specification:Aldo the Apache" />
      <path
         d="m 335.47633,467.87198 1.53809,0 0,6.35449 -1.23047,0 0,-3.95508 -0.98877,3.95508 -0.39551,0 -0.98877,-3.95508 0,3.95508 -1.23046,0 0,-6.35449 1.53808,0 0.87891,3.16406 0.8789,-3.16406"
         style="font-size:9px;font-style:normal;font-variant:normal;font-weight:normal;font-stretch:normal;line-height:125%;letter-spacing:0.56px;word-spacing:0px;fill:#ffffff;fill-opacity:1;stroke:none;font-family:Aldo the Apache;-inkscape-font-specification:Aldo the Apache"
         id="path3062"
         inkscape:connector-curvature="0" />
      <path
         d="m 338.22481,467.87198 3.83642,0 0,6.35449 -3.83642,0 0,-6.35449 m 1.33594,5.15039 1.16894,0 0,-3.9419 -1.16894,0 0,3.9419"
         style="font-size:9px;font-style:normal;font-variant:normal;font-weight:normal;font-stretch:normal;line-height:125%;letter-spacing:0.56px;word-spacing:0px;fill:#ffffff;fill-opacity:1;stroke:none;font-family:Aldo the Apache;-inkscape-font-specification:Aldo the Apache"
         id="path3064"
         inkscape:connector-curvature="0" />
      <path
         d="m 343.21449,467.87198 2.7334,0 1.02393,1.00635 0,4.46923 -0.89209,0.87891 -2.86524,0 0,-6.35449 m 2.42139,5.15039 0,-3.9419 -1.08984,0 0,3.9419 1.08984,0"
         style="font-size:9px;font-style:normal;font-variant:normal;font-weight:normal;font-stretch:normal;line-height:125%;letter-spacing:0.56px;word-spacing:0px;fill:#ffffff;fill-opacity:1;stroke:none;font-family:Aldo the Apache;-inkscape-font-specification:Aldo the Apache"
         id="path3066"
         inkscape:connector-curvature="0" />
      <path
         sodipodi:nodetypes="ccccc"
         d="m 349.3951,467.85044 0,6.37603 -1.33155,0 0,-6.37603 1.33155,0"
         style="font-size:9px;font-style:normal;font-variant:normal;font-weight:normal;font-stretch:normal;line-height:125%;letter-spacing:0.56px;word-spacing:0px;fill:#ffffff;fill-opacity:1;stroke:none;font-family:Aldo the Apache;-inkscape-font-specification:Aldo the Apache"
         id="path3068"
         inkscape:connector-curvature="0" />
      <path
         sodipodi:nodetypes="ccccccccccc"
         d="m 351.78323,471.49307 0,2.7334 -1.33123,0 0,-6.37629 3.03631,0.0218 0,1.20849 -1.70508,0 0,1.22608 1.57325,0 0,1.18652 -1.57325,0"
         style="font-size:9px;font-style:normal;font-variant:normal;font-weight:normal;font-stretch:normal;line-height:125%;letter-spacing:0.56px;word-spacing:0px;fill:#ffffff;fill-opacity:1;stroke:none;font-family:Aldo the Apache;-inkscape-font-specification:Aldo the Apache"
         id="path3070"
         inkscape:connector-curvature="0" />
      <path
         sodipodi:nodetypes="ccccc"
         d="m 355.92917,467.85044 0,6.37603 -1.33154,0 0,-6.37603 1.33154,0"
         style="font-size:9px;font-style:normal;font-variant:normal;font-weight:normal;font-stretch:normal;line-height:125%;letter-spacing:0.56px;word-spacing:0px;fill:#ffffff;fill-opacity:1;stroke:none;font-family:Aldo the Apache;-inkscape-font-specification:Aldo the Apache"
         id="path3072"
         inkscape:connector-curvature="0" />
      <path
         sodipodi:nodetypes="ccccccccccccc"
         d="m 359.39395,473.02237 0,-0.77344 1.33594,0 -0.0151,1.97653 -3.72884,0.001 0,-6.37629 3.74389,0.0218 0,2.39941 -1.33594,0 0,-1.19092 -1.07226,0 0,3.9419 1.07226,0"
         style="font-size:9px;font-style:normal;font-variant:normal;font-weight:normal;font-stretch:normal;line-height:125%;letter-spacing:0.56px;word-spacing:0px;fill:#ffffff;fill-opacity:1;stroke:none;font-family:Aldo the Apache;-inkscape-font-specification:Aldo the Apache"
         id="path3074"
         inkscape:connector-curvature="0" />
      <path
         sodipodi:nodetypes="cccccccccccccc"
         d="m 363.15317,474.22647 -1.33617,0 0,-6.37603 3.8015,0.0215 0,6.35449 -1.33154,0 0,-2.0874 -1.13379,0 0,2.0874 m 1.13379,-3.2959 0,-1.8501 -1.13379,0 0,1.8501 1.13379,0"
         style="font-size:9px;font-style:normal;font-variant:normal;font-weight:normal;font-stretch:normal;line-height:125%;letter-spacing:0.56px;word-spacing:0px;fill:#ffffff;fill-opacity:1;stroke:none;font-family:Aldo the Apache;-inkscape-font-specification:Aldo the Apache"
         id="path3076"
         inkscape:connector-curvature="0" />
      <path
         d="m 370.46756,469.08047 -1.19971,0 0,5.146 -1.34033,0 0,-5.146 -1.24365,0 0,-1.20849 3.78369,0 0,1.20849"
         style="font-size:9px;font-style:normal;font-variant:normal;font-weight:normal;font-stretch:normal;line-height:125%;letter-spacing:0.56px;word-spacing:0px;fill:#ffffff;fill-opacity:1;stroke:none;font-family:Aldo the Apache;-inkscape-font-specification:Aldo the Apache"
         id="path3078"
         inkscape:connector-curvature="0" />
      <path
         sodipodi:nodetypes="ccccc"
         d="m 372.89963,467.85044 0,6.37603 -1.33155,0 0,-6.37603 1.33155,0"
         style="font-size:9px;font-style:normal;font-variant:normal;font-weight:normal;font-stretch:normal;line-height:125%;letter-spacing:0.56px;word-spacing:0px;fill:#ffffff;fill-opacity:1;stroke:none;font-family:Aldo the Apache;-inkscape-font-specification:Aldo the Apache"
         id="path3080"
         inkscape:connector-curvature="0" />
      <path
         d="m 373.95622,467.87198 3.83643,0 0,6.35449 -3.83643,0 0,-6.35449 m 1.33594,5.15039 1.16895,0 0,-3.9419 -1.16895,0 0,3.9419"
         style="font-size:9px;font-style:normal;font-variant:normal;font-weight:normal;font-stretch:normal;line-height:125%;letter-spacing:0.56px;word-spacing:0px;fill:#ffffff;fill-opacity:1;stroke:none;font-family:Aldo the Apache;-inkscape-font-specification:Aldo the Apache"
         id="path3082"
         inkscape:connector-curvature="0" />
      <path
         d="m 381.55626,471.51944 0,-3.64746 1.25684,0 0,6.35449 -1.31836,0 -1.30079,-3.64746 0,3.64746 -1.24804,0 0,-6.35449 1.31836,0 1.29199,3.64746"
         style="font-size:9px;font-style:normal;font-variant:normal;font-weight:normal;font-stretch:normal;line-height:125%;letter-spacing:0.56px;word-spacing:0px;fill:#ffffff;fill-opacity:1;stroke:none;font-family:Aldo the Apache;-inkscape-font-specification:Aldo the Apache"
         id="path3084"
         inkscape:connector-curvature="0" />
    </g>
    <path
       inkscape:connector-curvature="0"
       inkscape:export-ydpi="300.43655"
       inkscape:export-xdpi="300.43655"
       inkscape:export-filename="/bigfiles/c/bzzwolfsp/media/assets - sources/rtcwcoop.png"
       id="path3296"
       d="m 128.37896,342.87921 -3.90625,3.90625 0,31.59375 170.75,0 0,-35.5 -166.84375,0 z"
       style="fill:#850303;fill-opacity:1;stroke:none" />
    <path
       inkscape:connector-curvature="0"
       inkscape:export-ydpi="300.43655"
       inkscape:export-xdpi="300.43655"
       inkscape:export-filename="/bigfiles/c/bzzwolfsp/media/assets - sources/rtcwcoop.png"
       id="path3298"
       d="m 129.473,346.4614 0,28.26156 5.90596,0 0,-10.21875 1.5625,0 3.53125,10.21875 5.9375,0 -3.75,-10.3125 3.1875,0 0,-17.9375 z m 19.12471,0.0116 0,5.375 5.53125,0 0,22.875 5.96875,0 0,-22.875 5.3125,0 0,-5.375 z m 19.21829,-0.0118 0,28.26182 16.657,-0.0319 0,-8.74937 -5.93779,0 0,3.4375 -4.78125,0 0,-17.53125 4.78125,0 0,5.28125 5.9375,0 0,-10.65625 z m 19.15671,0.0118 4.875,28.25 5.40625,0 3.125,-17.5 3.125,17.5 5.375,0 4.875,-28.25 -5.78125,0 -2.53125,16.84375 -3.03125,-16.84375 -4.09375,0 -3.03125,16.84375 -2.53125,-16.84375 z m 29.37529,-0.0118 0,28.26182 16.625,-0.0319 0,-8.74937 -5.93779,0 0,3.4375 -4.75,0 0,-17.53125 4.75,0 0,5.28125 5.9375,0 0,-10.65625 z m 18.968,0 0,28.26182 17.063,-0.0318 0,-28.21818 z m 19.688,-2e-5 0,28.26182 17.062,-0.0318 0,-28.21818 z m 19.687,2.2e-4 0,28.2616 5.93796,0 0,-7.1875 10.46875,0 0,-21.0625 z m -139.31204,5.3866 4.5625,0 0,7.375 -4.5625,0 z m 105.875,0 5.21875,0 0,17.53125 -5.21875,0 z m 19.6875,0 5.21875,0 0,17.53125 -5.21875,0 z m 19.6875,0 4.53125,0 0,10.28125 -4.53125,0 z"
       style="font-size:40px;font-style:normal;font-variant:normal;font-weight:normal;font-stretch:normal;line-height:125%;letter-spacing:0px;word-spacing:0px;fill:#ffffff;fill-opacity:1;stroke:none;font-family:Aldo the Apache;-inkscape-font-specification:Aldo the Apache"
       sodipodi:nodetypes="ccccccccccccccccccccccccccccccccccccccccccccccccccccccccccccccccccccccccccccccccccccccccccccccccc" />
    <rect
       inkscape:export-ydpi="300.43655"
       inkscape:export-xdpi="300.43655"
       inkscape:export-filename="/bigfiles/c/bzzwolfsp/media/assets - sources/rtcwcoop.png"
       y="380.19409"
       x="124.47697"
       height="8.2327328"
       width="170.74059"
       id="rect3300"
       style="fill:#000000;fill-opacity:1;stroke:none" />
    <path
       sodipodi:nodetypes="cccccccccccccc"
       d="m 126.84455,387.51193 -1.33584,0 0,-6.35429 3.80117,0 0,6.35429 -1.33154,0 0,-2.0874 -1.13379,0 0,2.0874 m 1.13379,-3.2959 0,-1.8501 -1.13379,0 0,1.8501 1.13379,0"
       id="path3302"
       inkscape:connector-curvature="0"
       style="font-size:9px;font-style:normal;font-variant:normal;font-weight:normal;font-stretch:normal;line-height:125%;letter-spacing:0px;word-spacing:0px;fill:#ffffff;fill-opacity:1;stroke:none;font-family:Aldo the Apache;-inkscape-font-specification:Aldo the Apache" />
    <path
       sodipodi:nodetypes="cccccccccccccccc"
       d="m 134.34602,387.51193 -0.79102,-2.29834 -0.35156,0 0,2.29834 -1.33255,0 0.002,-6.35429 3.68638,0 0,4.03837 -0.72071,0 0.84375,2.31592 -1.33593,0 m -0.11866,-3.48926 0,-1.65674 -1.02392,0 0,1.65674 1.02392,0"
       id="path3304"
       inkscape:connector-curvature="0"
       style="font-size:9px;font-style:normal;font-variant:normal;font-weight:normal;font-stretch:normal;line-height:125%;letter-spacing:0px;word-spacing:0px;fill:#ffffff;fill-opacity:1;stroke:none;font-family:Aldo the Apache;-inkscape-font-specification:Aldo the Apache" />
    <path
       d="m 136.17854,381.15744 3.08496,0 0,1.20849 -1.7666,0 0,1.22608 1.67871,0 0,1.18652 -1.66114,0 0,1.5293 1.79297,0 0,1.2041 -3.1289,0 0,-6.35449"
       id="path3306"
       inkscape:connector-curvature="0"
       style="font-size:9px;font-style:normal;font-variant:normal;font-weight:normal;font-stretch:normal;line-height:125%;letter-spacing:0px;word-spacing:0px;fill:#ffffff;fill-opacity:1;stroke:none;font-family:Aldo the Apache;-inkscape-font-specification:Aldo the Apache" />
    <path
       d="m 143.58332,382.36593 -1.19971,0 0,5.146 -1.34033,0 0,-5.146 -1.24365,0 0,-1.20849 3.78369,0 0,1.20849"
       id="path3308"
       inkscape:connector-curvature="0"
       style="font-size:9px;font-style:normal;font-variant:normal;font-weight:normal;font-stretch:normal;line-height:125%;letter-spacing:0px;word-spacing:0px;fill:#ffffff;fill-opacity:1;stroke:none;font-family:Aldo the Apache;-inkscape-font-specification:Aldo the Apache" />
    <path
       d="m 147.88117,387.51193 -3.75732,0 0,-6.35449 1.33154,0 0,5.15039 1.08985,0 0,-5.15039 1.33593,0 0,6.35449"
       id="path3310"
       inkscape:connector-curvature="0"
       style="font-size:9px;font-style:normal;font-variant:normal;font-weight:normal;font-stretch:normal;line-height:125%;letter-spacing:0px;word-spacing:0px;fill:#ffffff;fill-opacity:1;stroke:none;font-family:Aldo the Apache;-inkscape-font-specification:Aldo the Apache" />
    <path
       sodipodi:nodetypes="cccccccccccccccc"
       d="m 150.95734,387.51193 -0.79101,-2.29834 -0.35156,0 0,2.29834 -1.33106,0 0,-6.37629 3.68652,0.0218 0,4.03857 -0.72071,0 0.84375,2.31592 -1.33594,0 m -0.11865,-3.48926 0,-1.65674 -1.02392,0 0,1.65674 1.02392,0"
       id="path3312"
       inkscape:connector-curvature="0"
       style="font-size:9px;font-style:normal;font-variant:normal;font-weight:normal;font-stretch:normal;line-height:125%;letter-spacing:0px;word-spacing:0px;fill:#ffffff;fill-opacity:1;stroke:none;font-family:Aldo the Apache;-inkscape-font-specification:Aldo the Apache" />
    <path
       d="m 155.40022,384.8049 0,-3.64746 1.25683,0 0,6.35449 -1.31836,0 -1.30078,-3.64746 0,3.64746 -1.24805,0 0,-6.35449 1.31836,0 1.292,3.64746"
       id="path3314"
       inkscape:connector-curvature="0"
       style="font-size:9px;font-style:normal;font-variant:normal;font-weight:normal;font-stretch:normal;line-height:125%;letter-spacing:0px;word-spacing:0px;fill:#ffffff;fill-opacity:1;stroke:none;font-family:Aldo the Apache;-inkscape-font-specification:Aldo the Apache" />
    <path
       d="m 163.1302,382.36593 -1.19971,0 0,5.146 -1.34033,0 0,-5.146 -1.24366,0 0,-1.20849 3.7837,0 0,1.20849"
       id="path3316"
       inkscape:connector-curvature="0"
       style="font-size:9px;font-style:normal;font-variant:normal;font-weight:normal;font-stretch:normal;line-height:125%;letter-spacing:0px;word-spacing:0px;fill:#ffffff;fill-opacity:1;stroke:none;font-family:Aldo the Apache;-inkscape-font-specification:Aldo the Apache" />
    <path
       d="m 163.67072,381.15744 3.83643,0 0,6.35449 -3.83643,0 0,-6.35449 m 1.33594,5.15039 1.16895,0 0,-3.9419 -1.16895,0 0,3.9419"
       id="path3318"
       inkscape:connector-curvature="0"
       style="font-size:9px;font-style:normal;font-variant:normal;font-weight:normal;font-stretch:normal;line-height:125%;letter-spacing:0px;word-spacing:0px;fill:#ffffff;fill-opacity:1;stroke:none;font-family:Aldo the Apache;-inkscape-font-specification:Aldo the Apache" />
    <path
       sodipodi:nodetypes="ccccccccccccc"
       d="m 172.56525,386.30783 0,-0.77344 1.33594,0 -4.8e-4,1.97653 -3.74371,10e-4 -3.4e-4,-6.35429 3.74405,-2e-4 2e-5,2.39941 -1.33594,0 0,-1.19092 -1.07226,0 0,3.9419 1.07226,0"
       id="path3320"
       inkscape:connector-curvature="0"
       style="font-size:9px;font-style:normal;font-variant:normal;font-weight:normal;font-stretch:normal;line-height:125%;letter-spacing:0px;word-spacing:0px;fill:#ffffff;fill-opacity:1;stroke:none;font-family:Aldo the Apache;-inkscape-font-specification:Aldo the Apache" />
    <path
       sodipodi:nodetypes="cccccccccccccc"
       d="m 175.76447,387.51193 -1.33576,0 0,-6.37629 3.8011,0.0218 0,6.35449 -1.33155,0 0,-2.0874 -1.13379,0 0,2.0874 m 1.13379,-3.2959 0,-1.8501 -1.13379,0 0,1.8501 1.13379,0"
       id="path3322"
       inkscape:connector-curvature="0"
       style="font-size:9px;font-style:normal;font-variant:normal;font-weight:normal;font-stretch:normal;line-height:125%;letter-spacing:0px;word-spacing:0px;fill:#ffffff;fill-opacity:1;stroke:none;font-family:Aldo the Apache;-inkscape-font-specification:Aldo the Apache" />
    <path
       d="m 182.22883,387.51193 -3.49365,0 0,-1.97754 1.33154,0 0,0.77344 0.82617,0 0,-1.01074 -2.11377,-1.59522 0,-2.54443 3.41016,0 0,1.88965 -1.2085,0 0,-0.67676 -0.87012,0 0,0.83057 2.11817,1.59082 0,2.72021"
       id="path3324"
       inkscape:connector-curvature="0"
       style="font-size:9px;font-style:normal;font-variant:normal;font-weight:normal;font-stretch:normal;line-height:125%;letter-spacing:0px;word-spacing:0px;fill:#ffffff;fill-opacity:1;stroke:none;font-family:Aldo the Apache;-inkscape-font-specification:Aldo the Apache" />
    <path
       d="m 186.59699,382.36593 -1.1997,0 0,5.146 -1.34034,0 0,-5.146 -1.24365,0 0,-1.20849 3.78369,0 0,1.20849"
       id="path3326"
       inkscape:connector-curvature="0"
       style="font-size:9px;font-style:normal;font-variant:normal;font-weight:normal;font-stretch:normal;line-height:125%;letter-spacing:0px;word-spacing:0px;fill:#ffffff;fill-opacity:1;stroke:none;font-family:Aldo the Apache;-inkscape-font-specification:Aldo the Apache" />
    <path
       d="m 187.13752,387.51193 0,-6.35449 1.33154,0 0,5.15039 1.86328,0 0,1.2041 -3.19482,0"
       id="path3328"
       inkscape:connector-curvature="0"
       style="font-size:9px;font-style:normal;font-variant:normal;font-weight:normal;font-stretch:normal;line-height:125%;letter-spacing:0px;word-spacing:0px;fill:#ffffff;fill-opacity:1;stroke:none;font-family:Aldo the Apache;-inkscape-font-specification:Aldo the Apache" />
    <path
       d="m 190.89924,381.15744 3.08496,0 0,1.20849 -1.7666,0 0,1.22608 1.67871,0 0,1.18652 -1.66113,0 0,1.5293 1.79297,0 0,1.2041 -3.12891,0 0,-6.35449"
       id="path3330"
       inkscape:connector-curvature="0"
       style="font-size:9px;font-style:normal;font-variant:normal;font-weight:normal;font-stretch:normal;line-height:125%;letter-spacing:0px;word-spacing:0px;fill:#ffffff;fill-opacity:1;stroke:none;font-family:Aldo the Apache;-inkscape-font-specification:Aldo the Apache" />
    <path
       d="m 198.92365,387.51193 -1.21289,0 -1.09424,-6.35449 1.29639,0 0.57129,3.78808 0.68115,-3.78808 0.92285,0 0.68116,3.78808 0.57129,-3.78808 1.29638,0 -1.09424,6.35449 -1.21289,0 -0.70312,-3.9375 -0.70313,3.9375"
       id="path3332"
       inkscape:connector-curvature="0"
       style="font-size:9px;font-style:normal;font-variant:normal;font-weight:normal;font-stretch:normal;line-height:125%;letter-spacing:0px;word-spacing:0px;fill:#ffffff;fill-opacity:1;stroke:none;font-family:Aldo the Apache;-inkscape-font-specification:Aldo the Apache" />
    <path
       d="m 203.2215,381.15744 3.83643,0 0,6.35449 -3.83643,0 0,-6.35449 m 1.33594,5.15039 1.16895,0 0,-3.9419 -1.16895,0 0,3.9419"
       id="path3334"
       inkscape:connector-curvature="0"
       style="font-size:9px;font-style:normal;font-variant:normal;font-weight:normal;font-stretch:normal;line-height:125%;letter-spacing:0px;word-spacing:0px;fill:#ffffff;fill-opacity:1;stroke:none;font-family:Aldo the Apache;-inkscape-font-specification:Aldo the Apache" />
    <path
       d="m 207.65119,387.51193 0,-6.35449 1.33155,0 0,5.15039 1.86328,0 0,1.2041 -3.19483,0"
       id="path3336"
       inkscape:connector-curvature="0"
       style="font-size:9px;font-style:normal;font-variant:normal;font-weight:normal;font-stretch:normal;line-height:125%;letter-spacing:0px;word-spacing:0px;fill:#ffffff;fill-opacity:1;stroke:none;font-family:Aldo the Apache;-inkscape-font-specification:Aldo the Apache" />
    <path
       sodipodi:nodetypes="ccccccccccc"
       d="m 212.74445,384.77853 0,2.7334 -1.33174,0 0,-6.37629 3.03682,0.0218 0,1.20849 -1.70508,0 0,1.22608 1.57325,0 0,1.18652 -1.57325,0"
       id="path3338"
       inkscape:connector-curvature="0"
       style="font-size:9px;font-style:normal;font-variant:normal;font-weight:normal;font-stretch:normal;line-height:125%;letter-spacing:0px;word-spacing:0px;fill:#ffffff;fill-opacity:1;stroke:none;font-family:Aldo the Apache;-inkscape-font-specification:Aldo the Apache" />
    <path
       d="m 214.99885,381.15744 3.08496,0 0,1.20849 -1.7666,0 0,1.22608 1.67871,0 0,1.18652 -1.66113,0 0,1.5293 1.79296,0 0,1.2041 -3.1289,0 0,-6.35449"
       id="path3340"
       inkscape:connector-curvature="0"
       style="font-size:9px;font-style:normal;font-variant:normal;font-weight:normal;font-stretch:normal;line-height:125%;letter-spacing:0px;word-spacing:0px;fill:#ffffff;fill-opacity:1;stroke:none;font-family:Aldo the Apache;-inkscape-font-specification:Aldo the Apache" />
    <path
       d="m 221.23029,384.8049 0,-3.64746 1.25684,0 0,6.35449 -1.31836,0 -1.30078,-3.64746 0,3.64746 -1.24805,0 0,-6.35449 1.31836,0 1.29199,3.64746"
       id="path3342"
       inkscape:connector-curvature="0"
       style="font-size:9px;font-style:normal;font-variant:normal;font-weight:normal;font-stretch:normal;line-height:125%;letter-spacing:0px;word-spacing:0px;fill:#ffffff;fill-opacity:1;stroke:none;font-family:Aldo the Apache;-inkscape-font-specification:Aldo the Apache" />
    <path
       d="m 226.61359,387.51193 -3.49365,0 0,-1.97754 1.33155,0 0,0.77344 0.82617,0 0,-1.01074 -2.11377,-1.59522 0,-2.54443 3.41015,0 0,1.88965 -1.20849,0 0,-0.67676 -0.87012,0 0,0.83057 2.11816,1.59082 0,2.72021"
       id="path3344"
       inkscape:connector-curvature="0"
       style="font-size:9px;font-style:normal;font-variant:normal;font-weight:normal;font-stretch:normal;line-height:125%;letter-spacing:0px;word-spacing:0px;fill:#ffffff;fill-opacity:1;stroke:none;font-family:Aldo the Apache;-inkscape-font-specification:Aldo the Apache" />
    <path
       d="m 230.98176,382.36593 -1.19971,0 0,5.146 -1.34033,0 0,-5.146 -1.24365,0 0,-1.20849 3.78369,0 0,1.20849"
       id="path3346"
       inkscape:connector-curvature="0"
       style="font-size:9px;font-style:normal;font-variant:normal;font-weight:normal;font-stretch:normal;line-height:125%;letter-spacing:0px;word-spacing:0px;fill:#ffffff;fill-opacity:1;stroke:none;font-family:Aldo the Apache;-inkscape-font-specification:Aldo the Apache" />
    <path
       d="m 231.52229,381.15744 3.08496,0 0,1.20849 -1.7666,0 0,1.22608 1.67871,0 0,1.18652 -1.66114,0 0,1.5293 1.79297,0 0,1.2041 -3.1289,0 0,-6.35449"
       id="path3348"
       inkscape:connector-curvature="0"
       style="font-size:9px;font-style:normal;font-variant:normal;font-weight:normal;font-stretch:normal;line-height:125%;letter-spacing:0px;word-spacing:0px;fill:#ffffff;fill-opacity:1;stroke:none;font-family:Aldo the Apache;-inkscape-font-specification:Aldo the Apache" />
    <path
       sodipodi:nodetypes="ccccc"
       d="m 236.47492,381.13586 0,6.37607 -1.33154,0 0,-6.37607 1.33133,4e-5"
       id="path3350"
       inkscape:connector-curvature="0"
       style="font-size:9px;font-style:normal;font-variant:normal;font-weight:normal;font-stretch:normal;line-height:125%;letter-spacing:0px;word-spacing:0px;fill:#ffffff;fill-opacity:1;stroke:none;font-family:Aldo the Apache;-inkscape-font-specification:Aldo the Apache" />
    <path
       d="m 239.58186,384.8049 0,-3.64746 1.25683,0 0,6.35449 -1.31836,0 -1.30078,-3.64746 0,3.64746 -1.24805,0 0,-6.35449 1.31836,0 1.292,3.64746"
       id="path3352"
       inkscape:connector-curvature="0"
       style="font-size:9px;font-style:normal;font-variant:normal;font-weight:normal;font-stretch:normal;line-height:125%;letter-spacing:0px;word-spacing:0px;fill:#ffffff;fill-opacity:1;stroke:none;font-family:Aldo the Apache;-inkscape-font-specification:Aldo the Apache" />
    <path
       d="m 246.82404,381.15744 1.53809,0 0,6.35449 -1.23047,0 0,-3.95508 -0.98877,3.95508 -0.39551,0 -0.98877,-3.95508 0,3.95508 -1.23046,0 0,-6.35449 1.53808,0 0.87891,3.16406 0.8789,-3.16406"
       style="font-size:9px;font-style:normal;font-variant:normal;font-weight:normal;font-stretch:normal;line-height:125%;letter-spacing:0.56px;word-spacing:0px;fill:#ffffff;fill-opacity:1;stroke:none;font-family:Aldo the Apache;-inkscape-font-specification:Aldo the Apache"
       id="path3354"
       inkscape:connector-curvature="0" />
    <path
       d="m 249.57252,381.15744 3.83642,0 0,6.35449 -3.83642,0 0,-6.35449 m 1.33594,5.15039 1.16894,0 0,-3.9419 -1.16894,0 0,3.9419"
       style="font-size:9px;font-style:normal;font-variant:normal;font-weight:normal;font-stretch:normal;line-height:125%;letter-spacing:0.56px;word-spacing:0px;fill:#ffffff;fill-opacity:1;stroke:none;font-family:Aldo the Apache;-inkscape-font-specification:Aldo the Apache"
       id="path3356"
       inkscape:connector-curvature="0" />
    <path
       d="m 254.5622,381.15744 2.7334,0 1.02393,1.00635 0,4.46923 -0.89209,0.87891 -2.86524,0 0,-6.35449 m 2.42139,5.15039 0,-3.9419 -1.08984,0 0,3.9419 1.08984,0"
       style="font-size:9px;font-style:normal;font-variant:normal;font-weight:normal;font-stretch:normal;line-height:125%;letter-spacing:0.56px;word-spacing:0px;fill:#ffffff;fill-opacity:1;stroke:none;font-family:Aldo the Apache;-inkscape-font-specification:Aldo the Apache"
       id="path3358"
       inkscape:connector-curvature="0" />
    <path
       sodipodi:nodetypes="ccccc"
       d="m 260.74281,381.1359 0,6.37603 -1.33155,0 0,-6.37603 1.33155,0"
       style="font-size:9px;font-style:normal;font-variant:normal;font-weight:normal;font-stretch:normal;line-height:125%;letter-spacing:0.56px;word-spacing:0px;fill:#ffffff;fill-opacity:1;stroke:none;font-family:Aldo the Apache;-inkscape-font-specification:Aldo the Apache"
       id="path3360"
       inkscape:connector-curvature="0" />
    <path
       sodipodi:nodetypes="ccccccccccc"
       d="m 263.13094,384.77853 0,2.7334 -1.33123,0 0,-6.37629 3.03631,0.0218 0,1.20849 -1.70508,0 0,1.22608 1.57325,0 0,1.18652 -1.57325,0"
       style="font-size:9px;font-style:normal;font-variant:normal;font-weight:normal;font-stretch:normal;line-height:125%;letter-spacing:0.56px;word-spacing:0px;fill:#ffffff;fill-opacity:1;stroke:none;font-family:Aldo the Apache;-inkscape-font-specification:Aldo the Apache"
       id="path3362"
       inkscape:connector-curvature="0" />
    <path
       sodipodi:nodetypes="ccccc"
       d="m 267.27688,381.1359 0,6.37603 -1.33154,0 0,-6.37603 1.33154,0"
       style="font-size:9px;font-style:normal;font-variant:normal;font-weight:normal;font-stretch:normal;line-height:125%;letter-spacing:0.56px;word-spacing:0px;fill:#ffffff;fill-opacity:1;stroke:none;font-family:Aldo the Apache;-inkscape-font-specification:Aldo the Apache"
       id="path3364"
       inkscape:connector-curvature="0" />
    <path
       sodipodi:nodetypes="ccccccccccccc"
       d="m 270.74166,386.30783 0,-0.77344 1.33594,0 -0.0151,1.97653 -3.72884,10e-4 0,-6.37629 3.74389,0.0218 0,2.39941 -1.33594,0 0,-1.19092 -1.07226,0 0,3.9419 1.07226,0"
       style="font-size:9px;font-style:normal;font-variant:normal;font-weight:normal;font-stretch:normal;line-height:125%;letter-spacing:0.56px;word-spacing:0px;fill:#ffffff;fill-opacity:1;stroke:none;font-family:Aldo the Apache;-inkscape-font-specification:Aldo the Apache"
       id="path3366"
       inkscape:connector-curvature="0" />
    <path
       sodipodi:nodetypes="cccccccccccccc"
       d="m 274.50088,387.51193 -1.33617,0 0,-6.37603 3.8015,0.0215 0,6.35449 -1.33154,0 0,-2.0874 -1.13379,0 0,2.0874 m 1.13379,-3.2959 0,-1.8501 -1.13379,0 0,1.8501 1.13379,0"
       style="font-size:9px;font-style:normal;font-variant:normal;font-weight:normal;font-stretch:normal;line-height:125%;letter-spacing:0.56px;word-spacing:0px;fill:#ffffff;fill-opacity:1;stroke:none;font-family:Aldo the Apache;-inkscape-font-specification:Aldo the Apache"
       id="path3368"
       inkscape:connector-curvature="0" />
    <path
       d="m 281.81527,382.36593 -1.19971,0 0,5.146 -1.34033,0 0,-5.146 -1.24365,0 0,-1.20849 3.78369,0 0,1.20849"
       style="font-size:9px;font-style:normal;font-variant:normal;font-weight:normal;font-stretch:normal;line-height:125%;letter-spacing:0.56px;word-spacing:0px;fill:#ffffff;fill-opacity:1;stroke:none;font-family:Aldo the Apache;-inkscape-font-specification:Aldo the Apache"
       id="path3370"
       inkscape:connector-curvature="0" />
    <path
       sodipodi:nodetypes="ccccc"
       d="m 284.24734,381.1359 0,6.37603 -1.33155,0 0,-6.37603 1.33155,0"
       style="font-size:9px;font-style:normal;font-variant:normal;font-weight:normal;font-stretch:normal;line-height:125%;letter-spacing:0.56px;word-spacing:0px;fill:#ffffff;fill-opacity:1;stroke:none;font-family:Aldo the Apache;-inkscape-font-specification:Aldo the Apache"
       id="path3372"
       inkscape:connector-curvature="0" />
    <path
       d="m 285.30393,381.15744 3.83643,0 0,6.35449 -3.83643,0 0,-6.35449 m 1.33594,5.15039 1.16895,0 0,-3.9419 -1.16895,0 0,3.9419"
       style="font-size:9px;font-style:normal;font-variant:normal;font-weight:normal;font-stretch:normal;line-height:125%;letter-spacing:0.56px;word-spacing:0px;fill:#ffffff;fill-opacity:1;stroke:none;font-family:Aldo the Apache;-inkscape-font-specification:Aldo the Apache"
       id="path3374"
       inkscape:connector-curvature="0" />
    <path
       d="m 292.90397,384.8049 0,-3.64746 1.25684,0 0,6.35449 -1.31836,0 -1.30079,-3.64746 0,3.64746 -1.24804,0 0,-6.35449 1.31836,0 1.29199,3.64746"
       style="font-size:9px;font-style:normal;font-variant:normal;font-weight:normal;font-stretch:normal;line-height:125%;letter-spacing:0.56px;word-spacing:0px;fill:#ffffff;fill-opacity:1;stroke:none;font-family:Aldo the Apache;-inkscape-font-specification:Aldo the Apache"
       id="path3376"
       inkscape:connector-curvature="0" />
  </g>
</svg>
